<?xml version="1.0" encoding="UTF-8" standalone="no"?>
<!DOCTYPE svg PUBLIC "-//W3C//DTD SVG 1.1//EN"
 "http://www.w3.org/Graphics/SVG/1.1/DTD/svg11.dtd">
<!-- Generated by graphviz version 2.43.0 (0)
 -->
<!-- Title: %3 Pages: 1 -->
<svg width="3472pt" height="692pt"
 viewBox="0.00 0.00 3471.88 692.00" xmlns="http://www.w3.org/2000/svg" xmlns:xlink="http://www.w3.org/1999/xlink">
<g id="graph0" class="graph" transform="scale(1 1) rotate(0) translate(4 688)">
<title>%3</title>
<polygon fill="white" stroke="transparent" points="-4,4 -4,-688 3467.88,-688 3467.88,4 -4,4"/>
<!-- [root] module.network.aws_eip.nat (expand) -->
<g id="node1" class="node">
<title>[root] module.network.aws_eip.nat (expand)</title>
<polygon fill="none" stroke="black" points="3017,-324 2796,-324 2796,-288 3017,-288 3017,-324"/>
<text text-anchor="middle" x="2906.5" y="-302.3" font-family="Times,serif" font-size="14.00">module.network.aws_eip.nat</text>
</g>
<!-- [root] provider[&quot;registry.terraform.io/hashicorp/aws&quot;] -->
<g id="node12" class="node">
<title>[root] provider[&quot;registry.terraform.io/hashicorp/aws&quot;]</title>
<polygon fill="none" stroke="black" points="3138.5,-108 2813.24,-90 3138.5,-72 3463.76,-90 3138.5,-108"/>
<text text-anchor="middle" x="3138.5" y="-86.3" font-family="Times,serif" font-size="14.00">provider[&quot;registry.terraform.io/hashicorp/aws&quot;]</text>
</g>
<!-- [root] module.network.aws_eip.nat (expand)&#45;&gt;[root] provider[&quot;registry.terraform.io/hashicorp/aws&quot;] -->
<g id="edge8" class="edge">
<title>[root] module.network.aws_eip.nat (expand)&#45;&gt;[root] provider[&quot;registry.terraform.io/hashicorp/aws&quot;]</title>
<path fill="none" stroke="black" d="M2925.09,-287.85C2966.56,-249.6 3066.65,-157.27 3113.52,-114.05"/>
<polygon fill="black" stroke="black" points="3116.11,-116.41 3121.09,-107.06 3111.37,-111.26 3116.11,-116.41"/>
</g>
<!-- [root] module.network.local.name_prefix (expand) -->
<g id="node27" class="node">
<title>[root] module.network.local.name_prefix (expand)</title>
<ellipse fill="none" stroke="black" cx="2557.5" cy="-162" rx="241.56" ry="18"/>
<text text-anchor="middle" x="2557.5" y="-158.3" font-family="Times,serif" font-size="14.00">[root] module.network.local.name_prefix (expand)</text>
</g>
<!-- [root] module.network.aws_eip.nat (expand)&#45;&gt;[root] module.network.local.name_prefix (expand) -->
<g id="edge7" class="edge">
<title>[root] module.network.aws_eip.nat (expand)&#45;&gt;[root] module.network.local.name_prefix (expand)</title>
<path fill="none" stroke="black" d="M2864.4,-287.87C2799.99,-261.66 2677.19,-211.7 2608.05,-183.57"/>
<polygon fill="black" stroke="black" points="2609.24,-180.28 2598.66,-179.75 2606.61,-186.76 2609.24,-180.28"/>
</g>
<!-- [root] module.network.aws_internet_gateway.this (expand) -->
<g id="node2" class="node">
<title>[root] module.network.aws_internet_gateway.this (expand)</title>
<polygon fill="none" stroke="black" points="2577,-324 2252,-324 2252,-288 2577,-288 2577,-324"/>
<text text-anchor="middle" x="2414.5" y="-302.3" font-family="Times,serif" font-size="14.00">module.network.aws_internet_gateway.this</text>
</g>
<!-- [root] module.network.aws_vpc.this (expand) -->
<g id="node10" class="node">
<title>[root] module.network.aws_vpc.this (expand)</title>
<polygon fill="none" stroke="black" points="2528,-252 2301,-252 2301,-216 2528,-216 2528,-252"/>
<text text-anchor="middle" x="2414.5" y="-230.3" font-family="Times,serif" font-size="14.00">module.network.aws_vpc.this</text>
</g>
<!-- [root] module.network.aws_internet_gateway.this (expand)&#45;&gt;[root] module.network.aws_vpc.this (expand) -->
<g id="edge9" class="edge">
<title>[root] module.network.aws_internet_gateway.this (expand)&#45;&gt;[root] module.network.aws_vpc.this (expand)</title>
<path fill="none" stroke="black" d="M2414.5,-287.7C2414.5,-279.98 2414.5,-270.71 2414.5,-262.11"/>
<polygon fill="black" stroke="black" points="2418,-262.1 2414.5,-252.1 2411,-262.1 2418,-262.1"/>
</g>
<!-- [root] module.network.aws_nat_gateway.this (expand) -->
<g id="node3" class="node">
<title>[root] module.network.aws_nat_gateway.this (expand)</title>
<polygon fill="none" stroke="black" points="2730.5,-396 2440.5,-396 2440.5,-360 2730.5,-360 2730.5,-396"/>
<text text-anchor="middle" x="2585.5" y="-374.3" font-family="Times,serif" font-size="14.00">module.network.aws_nat_gateway.this</text>
</g>
<!-- [root] module.network.aws_nat_gateway.this (expand)&#45;&gt;[root] module.network.aws_eip.nat (expand) -->
<g id="edge10" class="edge">
<title>[root] module.network.aws_nat_gateway.this (expand)&#45;&gt;[root] module.network.aws_eip.nat (expand)</title>
<path fill="none" stroke="black" d="M2663.61,-359.97C2710.41,-349.76 2770.01,-336.76 2818.47,-326.2"/>
<polygon fill="black" stroke="black" points="2819.29,-329.6 2828.31,-324.05 2817.8,-322.76 2819.29,-329.6"/>
</g>
<!-- [root] module.network.aws_nat_gateway.this (expand)&#45;&gt;[root] module.network.aws_internet_gateway.this (expand) -->
<g id="edge11" class="edge">
<title>[root] module.network.aws_nat_gateway.this (expand)&#45;&gt;[root] module.network.aws_internet_gateway.this (expand)</title>
<path fill="none" stroke="black" d="M2543.67,-359.88C2520.08,-350.22 2490.44,-338.09 2465.5,-327.88"/>
<polygon fill="black" stroke="black" points="2466.78,-324.62 2456.2,-324.07 2464.12,-331.1 2466.78,-324.62"/>
</g>
<!-- [root] module.network.aws_subnet.public (expand) -->
<g id="node9" class="node">
<title>[root] module.network.aws_subnet.public (expand)</title>
<polygon fill="none" stroke="black" points="1938.5,-324 1670.5,-324 1670.5,-288 1938.5,-288 1938.5,-324"/>
<text text-anchor="middle" x="1804.5" y="-302.3" font-family="Times,serif" font-size="14.00">module.network.aws_subnet.public</text>
</g>
<!-- [root] module.network.aws_nat_gateway.this (expand)&#45;&gt;[root] module.network.aws_subnet.public (expand) -->
<g id="edge12" class="edge">
<title>[root] module.network.aws_nat_gateway.this (expand)&#45;&gt;[root] module.network.aws_subnet.public (expand)</title>
<path fill="none" stroke="black" d="M2440.42,-360.84C2437.42,-360.55 2434.45,-360.27 2431.5,-360 2220.4,-340.49 2164.45,-344.49 1948.68,-323.99"/>
<polygon fill="black" stroke="black" points="1948.91,-320.49 1938.62,-323.03 1948.24,-327.46 1948.91,-320.49"/>
</g>
<!-- [root] module.network.aws_route_table.private (expand) -->
<g id="node4" class="node">
<title>[root] module.network.aws_route_table.private (expand)</title>
<polygon fill="none" stroke="black" points="2739.5,-468 2431.5,-468 2431.5,-432 2739.5,-432 2739.5,-468"/>
<text text-anchor="middle" x="2585.5" y="-446.3" font-family="Times,serif" font-size="14.00">module.network.aws_route_table.private</text>
</g>
<!-- [root] module.network.aws_route_table.private (expand)&#45;&gt;[root] module.network.aws_nat_gateway.this (expand) -->
<g id="edge13" class="edge">
<title>[root] module.network.aws_route_table.private (expand)&#45;&gt;[root] module.network.aws_nat_gateway.this (expand)</title>
<path fill="none" stroke="black" d="M2585.5,-431.7C2585.5,-423.98 2585.5,-414.71 2585.5,-406.11"/>
<polygon fill="black" stroke="black" points="2589,-406.1 2585.5,-396.1 2582,-406.1 2589,-406.1"/>
</g>
<!-- [root] module.network.aws_route_table.public (expand) -->
<g id="node5" class="node">
<title>[root] module.network.aws_route_table.public (expand)</title>
<polygon fill="none" stroke="black" points="2422.5,-396 2122.5,-396 2122.5,-360 2422.5,-360 2422.5,-396"/>
<text text-anchor="middle" x="2272.5" y="-374.3" font-family="Times,serif" font-size="14.00">module.network.aws_route_table.public</text>
</g>
<!-- [root] module.network.aws_route_table.public (expand)&#45;&gt;[root] module.network.aws_internet_gateway.this (expand) -->
<g id="edge14" class="edge">
<title>[root] module.network.aws_route_table.public (expand)&#45;&gt;[root] module.network.aws_internet_gateway.this (expand)</title>
<path fill="none" stroke="black" d="M2307.24,-359.88C2326.32,-350.47 2350.18,-338.71 2370.55,-328.67"/>
<polygon fill="black" stroke="black" points="2372.21,-331.75 2379.63,-324.19 2369.11,-325.47 2372.21,-331.75"/>
</g>
<!-- [root] module.network.aws_route_table_association.private (expand) -->
<g id="node6" class="node">
<title>[root] module.network.aws_route_table_association.private (expand)</title>
<polygon fill="none" stroke="black" points="2872.5,-540 2478.5,-540 2478.5,-504 2872.5,-504 2872.5,-540"/>
<text text-anchor="middle" x="2675.5" y="-518.3" font-family="Times,serif" font-size="14.00">module.network.aws_route_table_association.private</text>
</g>
<!-- [root] module.network.aws_route_table_association.private (expand)&#45;&gt;[root] module.network.aws_route_table.private (expand) -->
<g id="edge15" class="edge">
<title>[root] module.network.aws_route_table_association.private (expand)&#45;&gt;[root] module.network.aws_route_table.private (expand)</title>
<path fill="none" stroke="black" d="M2653.25,-503.7C2641.92,-494.88 2627.97,-484.03 2615.68,-474.47"/>
<polygon fill="black" stroke="black" points="2617.53,-471.48 2607.49,-468.1 2613.24,-477.01 2617.53,-471.48"/>
</g>
<!-- [root] module.network.aws_subnet.private (expand) -->
<g id="node8" class="node">
<title>[root] module.network.aws_subnet.private (expand)</title>
<polygon fill="none" stroke="black" points="2232,-324 1957,-324 1957,-288 2232,-288 2232,-324"/>
<text text-anchor="middle" x="2094.5" y="-302.3" font-family="Times,serif" font-size="14.00">module.network.aws_subnet.private</text>
</g>
<!-- [root] module.network.aws_route_table_association.private (expand)&#45;&gt;[root] module.network.aws_subnet.private (expand) -->
<g id="edge16" class="edge">
<title>[root] module.network.aws_route_table_association.private (expand)&#45;&gt;[root] module.network.aws_subnet.private (expand)</title>
<path fill="none" stroke="black" d="M2508.83,-503.97C2363.6,-485.67 2167.94,-451.46 2113.5,-396 2097.72,-379.92 2093.62,-354.14 2093.09,-334.46"/>
<polygon fill="black" stroke="black" points="2096.59,-334.25 2093.11,-324.25 2089.59,-334.24 2096.59,-334.25"/>
</g>
<!-- [root] module.network.aws_route_table_association.public (expand) -->
<g id="node7" class="node">
<title>[root] module.network.aws_route_table_association.public (expand)</title>
<polygon fill="none" stroke="black" points="2460.5,-540 2074.5,-540 2074.5,-504 2460.5,-504 2460.5,-540"/>
<text text-anchor="middle" x="2267.5" y="-518.3" font-family="Times,serif" font-size="14.00">module.network.aws_route_table_association.public</text>
</g>
<!-- [root] module.network.aws_route_table_association.public (expand)&#45;&gt;[root] module.network.aws_route_table.public (expand) -->
<g id="edge17" class="edge">
<title>[root] module.network.aws_route_table_association.public (expand)&#45;&gt;[root] module.network.aws_route_table.public (expand)</title>
<path fill="none" stroke="black" d="M2268.1,-503.87C2268.96,-479.67 2270.52,-435.21 2271.54,-406.39"/>
<polygon fill="black" stroke="black" points="2275.04,-406.31 2271.89,-396.19 2268.04,-406.06 2275.04,-406.31"/>
</g>
<!-- [root] module.network.aws_route_table_association.public (expand)&#45;&gt;[root] module.network.aws_subnet.public (expand) -->
<g id="edge18" class="edge">
<title>[root] module.network.aws_route_table_association.public (expand)&#45;&gt;[root] module.network.aws_subnet.public (expand)</title>
<path fill="none" stroke="black" d="M2190.94,-503.95C2156.5,-495.11 2115.74,-482.99 2080.5,-468 1987.8,-428.57 1887.73,-364.07 1837.4,-329.9"/>
<polygon fill="black" stroke="black" points="1839.11,-326.84 1828.88,-324.09 1835.17,-332.62 1839.11,-326.84"/>
</g>
<!-- [root] module.network.aws_subnet.private (expand)&#45;&gt;[root] module.network.aws_vpc.this (expand) -->
<g id="edge19" class="edge">
<title>[root] module.network.aws_subnet.private (expand)&#45;&gt;[root] module.network.aws_vpc.this (expand)</title>
<path fill="none" stroke="black" d="M2172.37,-287.97C2219.02,-277.76 2278.44,-264.76 2326.74,-254.2"/>
<polygon fill="black" stroke="black" points="2327.54,-257.61 2336.56,-252.05 2326.04,-250.77 2327.54,-257.61"/>
</g>
<!-- [root] module.network.local.selected_azs (expand) -->
<g id="node28" class="node">
<title>[root] module.network.local.selected_azs (expand)</title>
<ellipse fill="none" stroke="black" cx="1818.5" cy="-234" rx="243.16" ry="18"/>
<text text-anchor="middle" x="1818.5" y="-230.3" font-family="Times,serif" font-size="14.00">[root] module.network.local.selected_azs (expand)</text>
</g>
<!-- [root] module.network.aws_subnet.private (expand)&#45;&gt;[root] module.network.local.selected_azs (expand) -->
<g id="edge20" class="edge">
<title>[root] module.network.aws_subnet.private (expand)&#45;&gt;[root] module.network.local.selected_azs (expand)</title>
<path fill="none" stroke="black" d="M2027.34,-287.97C1986.71,-277.66 1934.85,-264.51 1892.98,-253.89"/>
<polygon fill="black" stroke="black" points="1893.66,-250.45 1883.11,-251.39 1891.94,-257.24 1893.66,-250.45"/>
</g>
<!-- [root] module.network.var.private_subnet_cidrs (expand) -->
<g id="node29" class="node">
<title>[root] module.network.var.private_subnet_cidrs (expand)</title>
<ellipse fill="none" stroke="black" cx="1566.5" cy="-162" rx="274.05" ry="18"/>
<text text-anchor="middle" x="1566.5" y="-158.3" font-family="Times,serif" font-size="14.00">[root] module.network.var.private_subnet_cidrs (expand)</text>
</g>
<!-- [root] module.network.aws_subnet.private (expand)&#45;&gt;[root] module.network.var.private_subnet_cidrs (expand) -->
<g id="edge21" class="edge">
<title>[root] module.network.aws_subnet.private (expand)&#45;&gt;[root] module.network.var.private_subnet_cidrs (expand)</title>
<path fill="none" stroke="black" d="M2095.21,-287.95C2095.04,-267.5 2091.32,-233.76 2070.5,-216 2057.88,-205.24 1885.34,-188.77 1745.61,-177.05"/>
<polygon fill="black" stroke="black" points="1745.86,-173.56 1735.61,-176.22 1745.28,-180.54 1745.86,-173.56"/>
</g>
<!-- [root] module.network.aws_subnet.public (expand)&#45;&gt;[root] module.network.aws_vpc.this (expand) -->
<g id="edge22" class="edge">
<title>[root] module.network.aws_subnet.public (expand)&#45;&gt;[root] module.network.aws_vpc.this (expand)</title>
<path fill="none" stroke="black" d="M1938.64,-289.15C1941.96,-288.76 1945.25,-288.38 1948.5,-288 2064.39,-274.57 2196.53,-259.57 2290.43,-248.97"/>
<polygon fill="black" stroke="black" points="2290.99,-252.42 2300.54,-247.82 2290.21,-245.47 2290.99,-252.42"/>
</g>
<!-- [root] module.network.aws_subnet.public (expand)&#45;&gt;[root] module.network.local.selected_azs (expand) -->
<g id="edge23" class="edge">
<title>[root] module.network.aws_subnet.public (expand)&#45;&gt;[root] module.network.local.selected_azs (expand)</title>
<path fill="none" stroke="black" d="M1807.96,-287.7C1809.5,-279.98 1811.36,-270.71 1813.08,-262.11"/>
<polygon fill="black" stroke="black" points="1816.55,-262.6 1815.08,-252.1 1809.69,-261.22 1816.55,-262.6"/>
</g>
<!-- [root] module.network.var.public_subnet_cidrs (expand) -->
<g id="node30" class="node">
<title>[root] module.network.var.public_subnet_cidrs (expand)</title>
<ellipse fill="none" stroke="black" cx="1279.5" cy="-234" rx="269.95" ry="18"/>
<text text-anchor="middle" x="1279.5" y="-230.3" font-family="Times,serif" font-size="14.00">[root] module.network.var.public_subnet_cidrs (expand)</text>
</g>
<!-- [root] module.network.aws_subnet.public (expand)&#45;&gt;[root] module.network.var.public_subnet_cidrs (expand) -->
<g id="edge24" class="edge">
<title>[root] module.network.aws_subnet.public (expand)&#45;&gt;[root] module.network.var.public_subnet_cidrs (expand)</title>
<path fill="none" stroke="black" d="M1676.74,-287.97C1593.99,-276.93 1486.74,-262.63 1404.54,-251.67"/>
<polygon fill="black" stroke="black" points="1404.76,-248.17 1394.38,-250.32 1403.83,-255.11 1404.76,-248.17"/>
</g>
<!-- [root] module.network.aws_vpc.this (expand)&#45;&gt;[root] provider[&quot;registry.terraform.io/hashicorp/aws&quot;] -->
<g id="edge27" class="edge">
<title>[root] module.network.aws_vpc.this (expand)&#45;&gt;[root] provider[&quot;registry.terraform.io/hashicorp/aws&quot;]</title>
<path fill="none" stroke="black" d="M2528.09,-221.67C2607.15,-212.82 2714.79,-198.86 2808.5,-180 2906.02,-160.38 3017.34,-128.29 3082.56,-108.47"/>
<polygon fill="black" stroke="black" points="3083.68,-111.79 3092.23,-105.52 3081.64,-105.09 3083.68,-111.79"/>
</g>
<!-- [root] module.network.aws_vpc.this (expand)&#45;&gt;[root] module.network.local.name_prefix (expand) -->
<g id="edge25" class="edge">
<title>[root] module.network.aws_vpc.this (expand)&#45;&gt;[root] module.network.local.name_prefix (expand)</title>
<path fill="none" stroke="black" d="M2449.48,-215.88C2468.84,-206.4 2493.08,-194.53 2513.7,-184.44"/>
<polygon fill="black" stroke="black" points="2515.44,-187.49 2522.88,-179.95 2512.36,-181.2 2515.44,-187.49"/>
</g>
<!-- [root] module.network.var.vpc_cidr (expand) -->
<g id="node31" class="node">
<title>[root] module.network.var.vpc_cidr (expand)</title>
<ellipse fill="none" stroke="black" cx="1586.5" cy="-90" rx="216.36" ry="18"/>
<text text-anchor="middle" x="1586.5" y="-86.3" font-family="Times,serif" font-size="14.00">[root] module.network.var.vpc_cidr (expand)</text>
</g>
<!-- [root] module.network.aws_vpc.this (expand)&#45;&gt;[root] module.network.var.vpc_cidr (expand) -->
<g id="edge26" class="edge">
<title>[root] module.network.aws_vpc.this (expand)&#45;&gt;[root] module.network.var.vpc_cidr (expand)</title>
<path fill="none" stroke="black" d="M2372.01,-215.9C2351.37,-206.67 2326.73,-194.26 2306.5,-180 2287.75,-166.78 2290.41,-153.45 2269.5,-144 2266.55,-142.67 1951.86,-118.65 1750.72,-103.4"/>
<polygon fill="black" stroke="black" points="1750.86,-99.9 1740.63,-102.64 1750.33,-106.88 1750.86,-99.9"/>
</g>
<!-- [root] module.network.data.aws_availability_zones.available (expand) -->
<g id="node11" class="node">
<title>[root] module.network.data.aws_availability_zones.available (expand)</title>
<polygon fill="none" stroke="black" points="2260,-180 1859,-180 1859,-144 2260,-144 2260,-180"/>
<text text-anchor="middle" x="2059.5" y="-158.3" font-family="Times,serif" font-size="14.00">module.network.data.aws_availability_zones.available</text>
</g>
<!-- [root] module.network.data.aws_availability_zones.available (expand)&#45;&gt;[root] provider[&quot;registry.terraform.io/hashicorp/aws&quot;] -->
<g id="edge29" class="edge">
<title>[root] module.network.data.aws_availability_zones.available (expand)&#45;&gt;[root] provider[&quot;registry.terraform.io/hashicorp/aws&quot;]</title>
<path fill="none" stroke="black" d="M2260.02,-147.11C2275.74,-146.05 2291.38,-145 2306.5,-144 2542.5,-128.36 2816.22,-111.09 2983.34,-100.65"/>
<polygon fill="black" stroke="black" points="2983.68,-104.13 2993.45,-100.02 2983.25,-97.15 2983.68,-104.13"/>
</g>
<!-- [root] module.network (expand) -->
<g id="node32" class="node">
<title>[root] module.network (expand)</title>
<ellipse fill="none" stroke="black" cx="1464.5" cy="-18" rx="157.87" ry="18"/>
<text text-anchor="middle" x="1464.5" y="-14.3" font-family="Times,serif" font-size="14.00">[root] module.network (expand)</text>
</g>
<!-- [root] module.network.data.aws_availability_zones.available (expand)&#45;&gt;[root] module.network (expand) -->
<g id="edge28" class="edge">
<title>[root] module.network.data.aws_availability_zones.available (expand)&#45;&gt;[root] module.network (expand)</title>
<path fill="none" stroke="black" d="M1858.87,-144.73C1855.73,-144.48 1852.6,-144.24 1849.5,-144 1795.29,-139.81 1398.5,-147.83 1361.5,-108 1350.61,-96.28 1353.17,-85.66 1361.5,-72 1370.17,-57.78 1384.01,-47.22 1398.77,-39.43"/>
<polygon fill="black" stroke="black" points="1400.57,-42.45 1408.04,-34.93 1397.51,-36.15 1400.57,-42.45"/>
</g>
<!-- [root] var.aws_profile -->
<g id="node13" class="node">
<title>[root] var.aws_profile</title>
<polygon fill="none" stroke="black" points="3132,-36 3015,-36 3015,0 3138,0 3138,-30 3132,-36"/>
<polyline fill="none" stroke="black" points="3132,-36 3132,-30 "/>
<polyline fill="none" stroke="black" points="3138,-30 3132,-30 "/>
<text text-anchor="middle" x="3076.5" y="-14.3" font-family="Times,serif" font-size="14.00">var.aws_profile</text>
</g>
<!-- [root] provider[&quot;registry.terraform.io/hashicorp/aws&quot;]&#45;&gt;[root] var.aws_profile -->
<g id="edge50" class="edge">
<title>[root] provider[&quot;registry.terraform.io/hashicorp/aws&quot;]&#45;&gt;[root] var.aws_profile</title>
<path fill="none" stroke="black" d="M3124.12,-72.76C3116.52,-64.18 3107.02,-53.46 3098.52,-43.86"/>
<polygon fill="black" stroke="black" points="3100.92,-41.29 3091.67,-36.12 3095.68,-45.93 3100.92,-41.29"/>
</g>
<!-- [root] var.environment -->
<g id="node17" class="node">
<title>[root] var.environment</title>
<polygon fill="none" stroke="black" points="2804.5,-36 2676.5,-36 2676.5,0 2810.5,0 2810.5,-30 2804.5,-36"/>
<polyline fill="none" stroke="black" points="2804.5,-36 2804.5,-30 "/>
<polyline fill="none" stroke="black" points="2810.5,-30 2804.5,-30 "/>
<text text-anchor="middle" x="2743.5" y="-14.3" font-family="Times,serif" font-size="14.00">var.environment</text>
</g>
<!-- [root] provider[&quot;registry.terraform.io/hashicorp/aws&quot;]&#45;&gt;[root] var.environment -->
<g id="edge51" class="edge">
<title>[root] provider[&quot;registry.terraform.io/hashicorp/aws&quot;]&#45;&gt;[root] var.environment</title>
<path fill="none" stroke="black" d="M3065.13,-76C2995.59,-63.67 2891.53,-45.23 2820.75,-32.69"/>
<polygon fill="black" stroke="black" points="2821.01,-29.18 2810.55,-30.88 2819.79,-36.07 2821.01,-29.18"/>
</g>
<!-- [root] var.project_name -->
<g id="node19" class="node">
<title>[root] var.project_name</title>
<polygon fill="none" stroke="black" points="2388,-36 2255,-36 2255,0 2394,0 2394,-30 2388,-36"/>
<polyline fill="none" stroke="black" points="2388,-36 2388,-30 "/>
<polyline fill="none" stroke="black" points="2394,-30 2388,-30 "/>
<text text-anchor="middle" x="2324.5" y="-14.3" font-family="Times,serif" font-size="14.00">var.project_name</text>
</g>
<!-- [root] provider[&quot;registry.terraform.io/hashicorp/aws&quot;]&#45;&gt;[root] var.project_name -->
<g id="edge52" class="edge">
<title>[root] provider[&quot;registry.terraform.io/hashicorp/aws&quot;]&#45;&gt;[root] var.project_name</title>
<path fill="none" stroke="black" d="M3017.95,-78.63C2849.29,-64.13 2547.51,-38.18 2404.23,-25.86"/>
<polygon fill="black" stroke="black" points="2404.45,-22.36 2394.19,-24.99 2403.85,-29.34 2404.45,-22.36"/>
</g>
<!-- [root] var.region -->
<g id="node21" class="node">
<title>[root] var.region</title>
<polygon fill="none" stroke="black" points="3239,-36 3156,-36 3156,0 3245,0 3245,-30 3239,-36"/>
<polyline fill="none" stroke="black" points="3239,-36 3239,-30 "/>
<polyline fill="none" stroke="black" points="3245,-30 3239,-30 "/>
<text text-anchor="middle" x="3200.5" y="-14.3" font-family="Times,serif" font-size="14.00">var.region</text>
</g>
<!-- [root] provider[&quot;registry.terraform.io/hashicorp/aws&quot;]&#45;&gt;[root] var.region -->
<g id="edge53" class="edge">
<title>[root] provider[&quot;registry.terraform.io/hashicorp/aws&quot;]&#45;&gt;[root] var.region</title>
<path fill="none" stroke="black" d="M3152.88,-72.76C3160.48,-64.18 3169.98,-53.46 3178.48,-43.86"/>
<polygon fill="black" stroke="black" points="3181.32,-45.93 3185.33,-36.12 3176.08,-41.29 3181.32,-45.93"/>
</g>
<!-- [root] var.db_name -->
<g id="node14" class="node">
<title>[root] var.db_name</title>
<polygon fill="none" stroke="black" points="101,-612 0,-612 0,-576 107,-576 107,-606 101,-612"/>
<polyline fill="none" stroke="black" points="101,-612 101,-606 "/>
<polyline fill="none" stroke="black" points="107,-606 101,-606 "/>
<text text-anchor="middle" x="53.5" y="-590.3" font-family="Times,serif" font-size="14.00">var.db_name</text>
</g>
<!-- [root] var.db_password -->
<g id="node15" class="node">
<title>[root] var.db_password</title>
<polygon fill="none" stroke="black" points="255.5,-612 125.5,-612 125.5,-576 261.5,-576 261.5,-606 255.5,-612"/>
<polyline fill="none" stroke="black" points="255.5,-612 255.5,-606 "/>
<polyline fill="none" stroke="black" points="261.5,-606 255.5,-606 "/>
<text text-anchor="middle" x="193.5" y="-590.3" font-family="Times,serif" font-size="14.00">var.db_password</text>
</g>
<!-- [root] var.db_user -->
<g id="node16" class="node">
<title>[root] var.db_user</title>
<polygon fill="none" stroke="black" points="373,-612 280,-612 280,-576 379,-576 379,-606 373,-612"/>
<polyline fill="none" stroke="black" points="373,-612 373,-606 "/>
<polyline fill="none" stroke="black" points="379,-606 373,-606 "/>
<text text-anchor="middle" x="329.5" y="-590.3" font-family="Times,serif" font-size="14.00">var.db_user</text>
</g>
<!-- [root] var.my_ip_cidr -->
<g id="node18" class="node">
<title>[root] var.my_ip_cidr</title>
<polygon fill="none" stroke="black" points="510,-612 397,-612 397,-576 516,-576 516,-606 510,-612"/>
<polyline fill="none" stroke="black" points="510,-612 510,-606 "/>
<polyline fill="none" stroke="black" points="516,-606 510,-606 "/>
<text text-anchor="middle" x="456.5" y="-590.3" font-family="Times,serif" font-size="14.00">var.my_ip_cidr</text>
</g>
<!-- [root] var.public_key_path -->
<g id="node20" class="node">
<title>[root] var.public_key_path</title>
<polygon fill="none" stroke="black" points="685,-612 534,-612 534,-576 691,-576 691,-606 685,-612"/>
<polyline fill="none" stroke="black" points="685,-612 685,-606 "/>
<polyline fill="none" stroke="black" points="691,-606 685,-606 "/>
<text text-anchor="middle" x="612.5" y="-590.3" font-family="Times,serif" font-size="14.00">var.public_key_path</text>
</g>
<!-- [root] module.network (close) -->
<g id="node22" class="node">
<title>[root] module.network (close)</title>
<ellipse fill="none" stroke="black" cx="2066.5" cy="-594" rx="147.57" ry="18"/>
<text text-anchor="middle" x="2066.5" y="-590.3" font-family="Times,serif" font-size="14.00">[root] module.network (close)</text>
</g>
<!-- [root] module.network (close)&#45;&gt;[root] module.network.aws_route_table_association.private (expand) -->
<g id="edge1" class="edge">
<title>[root] module.network (close)&#45;&gt;[root] module.network.aws_route_table_association.private (expand)</title>
<path fill="none" stroke="black" d="M2169.81,-581.13C2265,-570.18 2407.66,-553.79 2517.21,-541.19"/>
<polygon fill="black" stroke="black" points="2517.84,-544.64 2527.38,-540.03 2517.04,-537.69 2517.84,-544.64"/>
</g>
<!-- [root] module.network (close)&#45;&gt;[root] module.network.aws_route_table_association.public (expand) -->
<g id="edge2" class="edge">
<title>[root] module.network (close)&#45;&gt;[root] module.network.aws_route_table_association.public (expand)</title>
<path fill="none" stroke="black" d="M2112.87,-576.85C2141.43,-566.91 2178.3,-554.06 2208.88,-543.42"/>
<polygon fill="black" stroke="black" points="2210.27,-546.64 2218.56,-540.04 2207.97,-540.03 2210.27,-546.64"/>
</g>
<!-- [root] module.network.output.private_subnet_ids (expand) -->
<g id="node23" class="node">
<title>[root] module.network.output.private_subnet_ids (expand)</title>
<ellipse fill="none" stroke="black" cx="1774.5" cy="-522" rx="282.15" ry="18"/>
<text text-anchor="middle" x="1774.5" y="-518.3" font-family="Times,serif" font-size="14.00">[root] module.network.output.private_subnet_ids (expand)</text>
</g>
<!-- [root] module.network (close)&#45;&gt;[root] module.network.output.private_subnet_ids (expand) -->
<g id="edge3" class="edge">
<title>[root] module.network (close)&#45;&gt;[root] module.network.output.private_subnet_ids (expand)</title>
<path fill="none" stroke="black" d="M2002.78,-577.72C1958.76,-567.17 1899.92,-553.07 1853,-541.82"/>
<polygon fill="black" stroke="black" points="1853.72,-538.39 1843.18,-539.46 1852.09,-545.2 1853.72,-538.39"/>
</g>
<!-- [root] module.network.output.public_subnet_ids (expand) -->
<g id="node24" class="node">
<title>[root] module.network.output.public_subnet_ids (expand)</title>
<ellipse fill="none" stroke="black" cx="1197.5" cy="-522" rx="276.75" ry="18"/>
<text text-anchor="middle" x="1197.5" y="-518.3" font-family="Times,serif" font-size="14.00">[root] module.network.output.public_subnet_ids (expand)</text>
</g>
<!-- [root] module.network (close)&#45;&gt;[root] module.network.output.public_subnet_ids (expand) -->
<g id="edge4" class="edge">
<title>[root] module.network (close)&#45;&gt;[root] module.network.output.public_subnet_ids (expand)</title>
<path fill="none" stroke="black" d="M1962.25,-581.22C1944.65,-579.37 1926.56,-577.56 1909.5,-576 1736.06,-560.16 1538.53,-545.74 1395.6,-535.96"/>
<polygon fill="black" stroke="black" points="1395.62,-532.45 1385.4,-535.26 1395.14,-539.43 1395.62,-532.45"/>
</g>
<!-- [root] module.network.output.selected_azs (expand) -->
<g id="node25" class="node">
<title>[root] module.network.output.selected_azs (expand)</title>
<ellipse fill="none" stroke="black" cx="649.5" cy="-522" rx="252.66" ry="18"/>
<text text-anchor="middle" x="649.5" y="-518.3" font-family="Times,serif" font-size="14.00">[root] module.network.output.selected_azs (expand)</text>
</g>
<!-- [root] module.network (close)&#45;&gt;[root] module.network.output.selected_azs (expand) -->
<g id="edge5" class="edge">
<title>[root] module.network (close)&#45;&gt;[root] module.network.output.selected_azs (expand)</title>
<path fill="none" stroke="black" d="M1964.83,-580.91C1946.43,-579.03 1927.41,-577.29 1909.5,-576 1466.8,-544.09 1354.78,-562.37 911.5,-540 886.58,-538.74 860.34,-537.25 834.49,-535.67"/>
<polygon fill="black" stroke="black" points="834.41,-532.16 824.21,-535.04 833.98,-539.14 834.41,-532.16"/>
</g>
<!-- [root] module.network.output.vpc_id (expand) -->
<g id="node26" class="node">
<title>[root] module.network.output.vpc_id (expand)</title>
<ellipse fill="none" stroke="black" cx="3114.5" cy="-522" rx="223.66" ry="18"/>
<text text-anchor="middle" x="3114.5" y="-518.3" font-family="Times,serif" font-size="14.00">[root] module.network.output.vpc_id (expand)</text>
</g>
<!-- [root] module.network (close)&#45;&gt;[root] module.network.output.vpc_id (expand) -->
<g id="edge6" class="edge">
<title>[root] module.network (close)&#45;&gt;[root] module.network.output.vpc_id (expand)</title>
<path fill="none" stroke="black" d="M2169.22,-581.01C2186.97,-579.17 2205.26,-577.41 2222.5,-576 2514.85,-552.1 2588.77,-558.67 2881.5,-540 2902.82,-538.64 2925.24,-537.12 2947.39,-535.56"/>
<polygon fill="black" stroke="black" points="2947.82,-539.04 2957.55,-534.85 2947.33,-532.06 2947.82,-539.04"/>
</g>
<!-- [root] module.network.output.private_subnet_ids (expand)&#45;&gt;[root] module.network.aws_subnet.private (expand) -->
<g id="edge33" class="edge">
<title>[root] module.network.output.private_subnet_ids (expand)&#45;&gt;[root] module.network.aws_subnet.private (expand)</title>
<path fill="none" stroke="black" d="M1799.88,-504.03C1856.92,-465.88 1995.31,-373.33 2060.05,-330.04"/>
<polygon fill="black" stroke="black" points="2062.31,-332.74 2068.67,-324.27 2058.42,-326.92 2062.31,-332.74"/>
</g>
<!-- [root] module.network.output.public_subnet_ids (expand)&#45;&gt;[root] module.network.aws_subnet.public (expand) -->
<g id="edge34" class="edge">
<title>[root] module.network.output.public_subnet_ids (expand)&#45;&gt;[root] module.network.aws_subnet.public (expand)</title>
<path fill="none" stroke="black" d="M1245.13,-504.21C1355.23,-465.39 1627.03,-369.57 1746.54,-327.43"/>
<polygon fill="black" stroke="black" points="1747.98,-330.64 1756.25,-324.01 1745.66,-324.03 1747.98,-330.64"/>
</g>
<!-- [root] module.network.output.selected_azs (expand)&#45;&gt;[root] module.network.local.selected_azs (expand) -->
<g id="edge35" class="edge">
<title>[root] module.network.output.selected_azs (expand)&#45;&gt;[root] module.network.local.selected_azs (expand)</title>
<path fill="none" stroke="black" d="M716.55,-504.6C919.52,-454.94 1526.53,-306.43 1741.77,-253.77"/>
<polygon fill="black" stroke="black" points="1742.84,-257.11 1751.72,-251.34 1741.18,-250.31 1742.84,-257.11"/>
</g>
<!-- [root] module.network.output.vpc_id (expand)&#45;&gt;[root] module.network.aws_vpc.this (expand) -->
<g id="edge36" class="edge">
<title>[root] module.network.output.vpc_id (expand)&#45;&gt;[root] module.network.aws_vpc.this (expand)</title>
<path fill="none" stroke="black" d="M3080.17,-504.17C2996.86,-463.7 2776.82,-359.04 2586.5,-288 2553.88,-275.82 2517.06,-264.2 2485.89,-254.97"/>
<polygon fill="black" stroke="black" points="2486.56,-251.51 2475.98,-252.05 2484.59,-258.23 2486.56,-251.51"/>
</g>
<!-- [root] module.network.var.environment (expand) -->
<g id="node33" class="node">
<title>[root] module.network.var.environment (expand)</title>
<ellipse fill="none" stroke="black" cx="2557.5" cy="-90" rx="237.46" ry="18"/>
<text text-anchor="middle" x="2557.5" y="-86.3" font-family="Times,serif" font-size="14.00">[root] module.network.var.environment (expand)</text>
</g>
<!-- [root] module.network.local.name_prefix (expand)&#45;&gt;[root] module.network.var.environment (expand) -->
<g id="edge30" class="edge">
<title>[root] module.network.local.name_prefix (expand)&#45;&gt;[root] module.network.var.environment (expand)</title>
<path fill="none" stroke="black" d="M2557.5,-143.7C2557.5,-135.98 2557.5,-126.71 2557.5,-118.11"/>
<polygon fill="black" stroke="black" points="2561,-118.1 2557.5,-108.1 2554,-118.1 2561,-118.1"/>
</g>
<!-- [root] module.network.var.project_name (expand) -->
<g id="node34" class="node">
<title>[root] module.network.var.project_name (expand)</title>
<ellipse fill="none" stroke="black" cx="2061.5" cy="-90" rx="240.46" ry="18"/>
<text text-anchor="middle" x="2061.5" y="-86.3" font-family="Times,serif" font-size="14.00">[root] module.network.var.project_name (expand)</text>
</g>
<!-- [root] module.network.local.name_prefix (expand)&#45;&gt;[root] module.network.var.project_name (expand) -->
<g id="edge31" class="edge">
<title>[root] module.network.local.name_prefix (expand)&#45;&gt;[root] module.network.var.project_name (expand)</title>
<path fill="none" stroke="black" d="M2450.18,-145.85C2370.2,-134.57 2261.04,-119.16 2178.77,-107.55"/>
<polygon fill="black" stroke="black" points="2179.01,-104.05 2168.62,-106.12 2178.03,-110.98 2179.01,-104.05"/>
</g>
<!-- [root] module.network.local.selected_azs (expand)&#45;&gt;[root] module.network.data.aws_availability_zones.available (expand) -->
<g id="edge32" class="edge">
<title>[root] module.network.local.selected_azs (expand)&#45;&gt;[root] module.network.data.aws_availability_zones.available (expand)</title>
<path fill="none" stroke="black" d="M1875.61,-216.41C1910.09,-206.4 1954.25,-193.57 1990.65,-183"/>
<polygon fill="black" stroke="black" points="1992.07,-186.23 2000.7,-180.08 1990.12,-179.51 1992.07,-186.23"/>
</g>
<!-- [root] module.network.var.private_subnet_cidrs (expand)&#45;&gt;[root] module.network (expand) -->
<g id="edge39" class="edge">
<title>[root] module.network.var.private_subnet_cidrs (expand)&#45;&gt;[root] module.network (expand)</title>
<path fill="none" stroke="black" d="M1434.17,-146.22C1387.39,-138.05 1342.8,-125.83 1328.5,-108 1318.49,-95.52 1319.47,-85.21 1328.5,-72 1339.34,-56.14 1355.68,-45.03 1373.31,-37.24"/>
<polygon fill="black" stroke="black" points="1374.68,-40.47 1382.63,-33.47 1372.05,-33.98 1374.68,-40.47"/>
</g>
<!-- [root] module.network.var.public_subnet_cidrs (expand)&#45;&gt;[root] module.network (expand) -->
<g id="edge42" class="edge">
<title>[root] module.network.var.public_subnet_cidrs (expand)&#45;&gt;[root] module.network (expand)</title>
<path fill="none" stroke="black" d="M1277.85,-215.84C1275.71,-182.61 1276.27,-109.48 1317.5,-72 1334.9,-56.18 1357.37,-45 1379.48,-37.13"/>
<polygon fill="black" stroke="black" points="1380.89,-40.35 1389.25,-33.85 1378.66,-33.71 1380.89,-40.35"/>
</g>
<!-- [root] module.network.var.vpc_cidr (expand)&#45;&gt;[root] module.network (expand) -->
<g id="edge43" class="edge">
<title>[root] module.network.var.vpc_cidr (expand)&#45;&gt;[root] module.network (expand)</title>
<path fill="none" stroke="black" d="M1556.97,-72.05C1540.63,-62.68 1520.15,-50.93 1502.62,-40.87"/>
<polygon fill="black" stroke="black" points="1504.18,-37.73 1493.76,-35.79 1500.69,-43.8 1504.18,-37.73"/>
</g>
<!-- [root] module.network.var.environment (expand)&#45;&gt;[root] var.environment -->
<g id="edge38" class="edge">
<title>[root] module.network.var.environment (expand)&#45;&gt;[root] var.environment</title>
<path fill="none" stroke="black" d="M2602.05,-72.23C2628.01,-62.46 2660.95,-50.07 2688.52,-39.69"/>
<polygon fill="black" stroke="black" points="2689.89,-42.91 2698.02,-36.12 2687.43,-36.36 2689.89,-42.91"/>
</g>
<!-- [root] module.network.var.environment (expand)&#45;&gt;[root] module.network (expand) -->
<g id="edge37" class="edge">
<title>[root] module.network.var.environment (expand)&#45;&gt;[root] module.network (expand)</title>
<path fill="none" stroke="black" d="M2389.43,-77.29C2363.02,-75.49 2336.02,-73.68 2310.5,-72 2064.96,-55.86 1779.25,-38.19 1610.6,-27.88"/>
<polygon fill="black" stroke="black" points="1610.61,-24.37 1600.42,-27.26 1610.18,-31.36 1610.61,-24.37"/>
</g>
<!-- [root] module.network.var.project_name (expand)&#45;&gt;[root] var.project_name -->
<g id="edge41" class="edge">
<title>[root] module.network.var.project_name (expand)&#45;&gt;[root] var.project_name</title>
<path fill="none" stroke="black" d="M2123.16,-72.59C2161.31,-62.43 2210.51,-49.34 2250.73,-38.64"/>
<polygon fill="black" stroke="black" points="2251.71,-41.99 2260.48,-36.04 2249.91,-35.23 2251.71,-41.99"/>
</g>
<!-- [root] module.network.var.project_name (expand)&#45;&gt;[root] module.network (expand) -->
<g id="edge40" class="edge">
<title>[root] module.network.var.project_name (expand)&#45;&gt;[root] module.network (expand)</title>
<path fill="none" stroke="black" d="M1938.16,-74.54C1833.09,-62.22 1683.2,-44.64 1580.33,-32.58"/>
<polygon fill="black" stroke="black" points="1580.55,-29.08 1570.21,-31.4 1579.74,-36.04 1580.55,-29.08"/>
</g>
<!-- [root] output.private_subnet_ids (expand) -->
<g id="node35" class="node">
<title>[root] output.private_subnet_ids (expand)</title>
<ellipse fill="none" stroke="black" cx="1696.5" cy="-594" rx="204.16" ry="18"/>
<text text-anchor="middle" x="1696.5" y="-590.3" font-family="Times,serif" font-size="14.00">[root] output.private_subnet_ids (expand)</text>
</g>
<!-- [root] output.private_subnet_ids (expand)&#45;&gt;[root] module.network.output.private_subnet_ids (expand) -->
<g id="edge44" class="edge">
<title>[root] output.private_subnet_ids (expand)&#45;&gt;[root] module.network.output.private_subnet_ids (expand)</title>
<path fill="none" stroke="black" d="M1715.38,-576.05C1725.18,-567.26 1737.31,-556.38 1748.02,-546.76"/>
<polygon fill="black" stroke="black" points="1750.42,-549.32 1755.52,-540.03 1745.74,-544.11 1750.42,-549.32"/>
</g>
<!-- [root] output.public_subnet_ids (expand) -->
<g id="node36" class="node">
<title>[root] output.public_subnet_ids (expand)</title>
<ellipse fill="none" stroke="black" cx="1275.5" cy="-594" rx="198.76" ry="18"/>
<text text-anchor="middle" x="1275.5" y="-590.3" font-family="Times,serif" font-size="14.00">[root] output.public_subnet_ids (expand)</text>
</g>
<!-- [root] output.public_subnet_ids (expand)&#45;&gt;[root] module.network.output.public_subnet_ids (expand) -->
<g id="edge45" class="edge">
<title>[root] output.public_subnet_ids (expand)&#45;&gt;[root] module.network.output.public_subnet_ids (expand)</title>
<path fill="none" stroke="black" d="M1256.62,-576.05C1246.82,-567.26 1234.69,-556.38 1223.98,-546.76"/>
<polygon fill="black" stroke="black" points="1226.26,-544.11 1216.48,-540.03 1221.58,-549.32 1226.26,-544.11"/>
</g>
<!-- [root] output.selected_azs (expand) -->
<g id="node37" class="node">
<title>[root] output.selected_azs (expand)</title>
<ellipse fill="none" stroke="black" cx="883.5" cy="-594" rx="174.67" ry="18"/>
<text text-anchor="middle" x="883.5" y="-590.3" font-family="Times,serif" font-size="14.00">[root] output.selected_azs (expand)</text>
</g>
<!-- [root] output.selected_azs (expand)&#45;&gt;[root] module.network.output.selected_azs (expand) -->
<g id="edge46" class="edge">
<title>[root] output.selected_azs (expand)&#45;&gt;[root] module.network.output.selected_azs (expand)</title>
<path fill="none" stroke="black" d="M829.52,-576.85C795.47,-566.67 751.27,-553.44 715.19,-542.65"/>
<polygon fill="black" stroke="black" points="715.82,-539.19 705.24,-539.67 713.82,-545.89 715.82,-539.19"/>
</g>
<!-- [root] output.vpc_id (expand) -->
<g id="node38" class="node">
<title>[root] output.vpc_id (expand)</title>
<ellipse fill="none" stroke="black" cx="3046.5" cy="-594" rx="145.67" ry="18"/>
<text text-anchor="middle" x="3046.5" y="-590.3" font-family="Times,serif" font-size="14.00">[root] output.vpc_id (expand)</text>
</g>
<!-- [root] output.vpc_id (expand)&#45;&gt;[root] module.network.output.vpc_id (expand) -->
<g id="edge47" class="edge">
<title>[root] output.vpc_id (expand)&#45;&gt;[root] module.network.output.vpc_id (expand)</title>
<path fill="none" stroke="black" d="M3062.96,-576.05C3071.27,-567.5 3081.51,-556.96 3090.67,-547.54"/>
<polygon fill="black" stroke="black" points="3093.26,-549.89 3097.72,-540.28 3088.24,-545.01 3093.26,-549.89"/>
</g>
<!-- [root] provider[&quot;registry.terraform.io/hashicorp/aws&quot;] (close) -->
<g id="node39" class="node">
<title>[root] provider[&quot;registry.terraform.io/hashicorp/aws&quot;] (close)</title>
<ellipse fill="none" stroke="black" cx="2523.5" cy="-594" rx="291.65" ry="18"/>
<text text-anchor="middle" x="2523.5" y="-590.3" font-family="Times,serif" font-size="14.00">[root] provider[&quot;registry.terraform.io/hashicorp/aws&quot;] (close)</text>
</g>
<!-- [root] provider[&quot;registry.terraform.io/hashicorp/aws&quot;] (close)&#45;&gt;[root] module.network.aws_route_table_association.private (expand) -->
<g id="edge48" class="edge">
<title>[root] provider[&quot;registry.terraform.io/hashicorp/aws&quot;] (close)&#45;&gt;[root] module.network.aws_route_table_association.private (expand)</title>
<path fill="none" stroke="black" d="M2560.29,-576.05C2581.05,-566.5 2607.18,-554.46 2629.31,-544.27"/>
<polygon fill="black" stroke="black" points="2630.9,-547.39 2638.52,-540.03 2627.97,-541.04 2630.9,-547.39"/>
</g>
<!-- [root] provider[&quot;registry.terraform.io/hashicorp/aws&quot;] (close)&#45;&gt;[root] module.network.aws_route_table_association.public (expand) -->
<g id="edge49" class="edge">
<title>[root] provider[&quot;registry.terraform.io/hashicorp/aws&quot;] (close)&#45;&gt;[root] module.network.aws_route_table_association.public (expand)</title>
<path fill="none" stroke="black" d="M2462.51,-576.32C2425.56,-566.22 2378.24,-553.28 2339.47,-542.68"/>
<polygon fill="black" stroke="black" points="2340.37,-539.3 2329.8,-540.04 2338.53,-546.05 2340.37,-539.3"/>
</g>
<!-- [root] root -->
<g id="node40" class="node">
<title>[root] root</title>
<ellipse fill="none" stroke="black" cx="883.5" cy="-666" rx="58.49" ry="18"/>
<text text-anchor="middle" x="883.5" y="-662.3" font-family="Times,serif" font-size="14.00">[root] root</text>
</g>
<!-- [root] root&#45;&gt;[root] var.db_name -->
<g id="edge60" class="edge">
<title>[root] root&#45;&gt;[root] var.db_name</title>
<path fill="none" stroke="black" d="M824.83,-664.82C697.4,-663.6 385.86,-656.09 117.24,-611.91"/>
<polygon fill="black" stroke="black" points="117.74,-608.45 107.3,-610.26 116.59,-615.35 117.74,-608.45"/>
</g>
<!-- [root] root&#45;&gt;[root] var.db_password -->
<g id="edge61" class="edge">
<title>[root] root&#45;&gt;[root] var.db_password</title>
<path fill="none" stroke="black" d="M825.73,-662.53C718.39,-657.4 480.81,-643.45 271.78,-612.08"/>
<polygon fill="black" stroke="black" points="272.26,-608.62 261.85,-610.58 271.21,-615.54 272.26,-608.62"/>
</g>
<!-- [root] root&#45;&gt;[root] var.db_user -->
<g id="edge62" class="edge">
<title>[root] root&#45;&gt;[root] var.db_user</title>
<path fill="none" stroke="black" d="M826.09,-662.2C735.09,-657.04 552.14,-643.69 389.23,-612.15"/>
<polygon fill="black" stroke="black" points="389.52,-608.64 379.03,-610.15 388.17,-615.51 389.52,-608.64"/>
</g>
<!-- [root] root&#45;&gt;[root] var.my_ip_cidr -->
<g id="edge63" class="edge">
<title>[root] root&#45;&gt;[root] var.my_ip_cidr</title>
<path fill="none" stroke="black" d="M829.69,-658.73C761.23,-650.39 639.19,-634.27 526,-612.2"/>
<polygon fill="black" stroke="black" points="526.62,-608.76 516.13,-610.26 525.26,-615.63 526.62,-608.76"/>
</g>
<!-- [root] root&#45;&gt;[root] var.public_key_path -->
<g id="edge64" class="edge">
<title>[root] root&#45;&gt;[root] var.public_key_path</title>
<path fill="none" stroke="black" d="M840.26,-653.83C799.44,-643.29 737.34,-627.25 688.29,-614.58"/>
<polygon fill="black" stroke="black" points="688.91,-611.12 678.35,-612.01 687.15,-617.9 688.91,-611.12"/>
</g>
<!-- [root] root&#45;&gt;[root] module.network (close) -->
<g id="edge54" class="edge">
<title>[root] root&#45;&gt;[root] module.network (close)</title>
<path fill="none" stroke="black" d="M941.43,-663.15C1097.79,-657.91 1541.46,-641.41 1909.5,-612 1923.71,-610.86 1938.63,-609.49 1953.37,-608.02"/>
<polygon fill="black" stroke="black" points="1953.95,-611.48 1963.55,-606.99 1953.24,-604.51 1953.95,-611.48"/>
</g>
<!-- [root] root&#45;&gt;[root] output.private_subnet_ids (expand) -->
<g id="edge55" class="edge">
<title>[root] root&#45;&gt;[root] output.private_subnet_ids (expand)</title>
<path fill="none" stroke="black" d="M939.06,-660.22C1062.47,-649.59 1362.96,-623.72 1546.2,-607.94"/>
<polygon fill="black" stroke="black" points="1546.53,-611.43 1556.2,-607.08 1545.93,-604.45 1546.53,-611.43"/>
</g>
<!-- [root] root&#45;&gt;[root] output.public_subnet_ids (expand) -->
<g id="edge56" class="edge">
<title>[root] root&#45;&gt;[root] output.public_subnet_ids (expand)</title>
<path fill="none" stroke="black" d="M932.75,-656.21C994.57,-645.17 1101.97,-625.99 1180.1,-612.04"/>
<polygon fill="black" stroke="black" points="1180.73,-615.48 1189.96,-610.27 1179.5,-608.59 1180.73,-615.48"/>
</g>
<!-- [root] root&#45;&gt;[root] output.selected_azs (expand) -->
<g id="edge57" class="edge">
<title>[root] root&#45;&gt;[root] output.selected_azs (expand)</title>
<path fill="none" stroke="black" d="M883.5,-647.7C883.5,-639.98 883.5,-630.71 883.5,-622.11"/>
<polygon fill="black" stroke="black" points="887,-622.1 883.5,-612.1 880,-622.1 887,-622.1"/>
</g>
<!-- [root] root&#45;&gt;[root] output.vpc_id (expand) -->
<g id="edge58" class="edge">
<title>[root] root&#45;&gt;[root] output.vpc_id (expand)</title>
<path fill="none" stroke="black" d="M941.9,-664.45C1177.6,-662.02 2081.76,-650.56 2824.5,-612 2855.68,-610.38 2889.27,-608.09 2920.67,-605.72"/>
<polygon fill="black" stroke="black" points="2921.07,-609.2 2930.77,-604.94 2920.54,-602.22 2921.07,-609.2"/>
</g>
<!-- [root] root&#45;&gt;[root] provider[&quot;registry.terraform.io/hashicorp/aws&quot;] (close) -->
<g id="edge59" class="edge">
<title>[root] root&#45;&gt;[root] provider[&quot;registry.terraform.io/hashicorp/aws&quot;] (close)</title>
<path fill="none" stroke="black" d="M941.31,-663.07C1127.34,-656.77 1727.29,-635.87 2223.5,-612 2251.58,-610.65 2281.14,-609.11 2310.3,-607.53"/>
<polygon fill="black" stroke="black" points="2310.8,-611.01 2320.6,-606.97 2310.42,-604.02 2310.8,-611.01"/>
</g>
</g>
</svg>
